<svg width="44" height="44" viewBox="0 0 44 44" fill="none" xmlns="http://www.w3.org/2000/svg">
<path fill-rule="evenodd" clip-rule="evenodd" d="M22.2426 14.7574C24.5858 12.4142 28.3848 12.4142 30.7279 14.7574C33.0711 17.1005 33.0711 20.8995 30.7279 23.2426L22.2426 31.728L13.7574 23.2427C11.4142 20.8995 11.4142 17.1005 13.7574 14.7574C16.1005 12.4143 19.8995 12.4142 22.2426 14.7574ZM29.3137 16.1716C27.7516 14.6095 25.2189 14.6095 23.6568 16.1716L22.2426 17.5858L20.8284 16.1716C19.2663 14.6095 16.7337 14.6095 15.1716 16.1716C13.6095 17.7337 13.6095 20.2664 15.1716 21.8285L22.2426 28.8995L29.3137 21.8284C30.8758 20.2663 30.8758 17.7337 29.3137 16.1716Z" fill="#2D3132"/>
<g clip-path="url(#clip0_3658_383)">
<rect x="26" y="4" width="14" height="14" rx="7" fill="#EFF1F1"/>
<path d="M34.4631 11.33C35.0631 11.07 35.4131 10.51 35.4131 9.84C35.4131 8.67 34.3631 7.88 33.0031 7.88C31.6331 7.88 30.5831 8.67 30.5831 9.84C30.5831 10.51 30.9331 11.07 31.5331 11.33C30.7731 11.6 30.3631 12.26 30.3631 13.06C30.3631 14.34 31.5031 15.12 33.0031 15.12C34.4931 15.12 35.6331 14.34 35.6331 13.06C35.6331 12.26 35.2231 11.6 34.4631 11.33ZM33.0031 8.95C33.8131 8.95 34.2831 9.35 34.2831 9.98C34.2831 10.51 33.9331 10.9 33.0031 10.9C32.0631 10.9 31.7131 10.51 31.7131 9.98C31.7131 9.35 32.1831 8.95 33.0031 8.95ZM33.0031 14.05C32.0831 14.05 31.4931 13.67 31.4931 12.96C31.4931 12.23 32.0231 11.88 33.0031 11.88C33.9731 11.88 34.5031 12.22 34.5031 12.96C34.5031 13.67 33.9131 14.05 33.0031 14.05Z" fill="#2D3132"/>
</g>
<rect x="24.8" y="2.8" width="16.4" height="16.4" rx="8.2" stroke="white" stroke-width="2.4"/>
<defs>
<clipPath id="clip0_3658_383">
<rect x="26" y="4" width="14" height="14" rx="7" fill="white"/>
</clipPath>
</defs>
</svg>
