<svg width="44" height="44" viewBox="0 0 44 44" fill="none" xmlns="http://www.w3.org/2000/svg">
<path d="M27 19C27 19.5523 26.5523 20 26 20H18C17.4477 20 17 19.5523 17 19C17 18.4477 17.4477 18 18 18H26C26.5523 18 27 18.4477 27 19Z" fill="#2D3132"/>
<path d="M17 23C17 23.5523 17.4477 24 18 24H26C26.5523 24 27 23.5523 27 23C27 22.4477 26.5523 22 26 22H18C17.4477 22 17 22.4477 17 23Z" fill="#2D3132"/>
<path fill-rule="evenodd" clip-rule="evenodd" d="M16 13C13.7909 13 12 14.7909 12 17V29C12 30.8811 13.9362 32.1395 15.6552 31.3754L20.2243 29.3448C20.7357 29.1174 21.2892 29 21.8489 29H28C30.2091 29 32 27.2091 32 25V17C32 14.7909 30.2091 13 28 13H16ZM28 15H16C14.8954 15 14 15.8954 14 17V29C14 29.4338 14.4465 29.724 14.843 29.5478L19.412 27.5171C20.1792 27.1762 21.0093 27 21.8489 27H28C29.1046 27 30 26.1046 30 25V17C30 15.8954 29.1046 15 28 15Z" fill="#2D3132"/>
<g clip-path="url(#clip0_3658_388)">
<rect x="26" y="4" width="14" height="14" rx="7" fill="#FF5449"/>
<path d="M34.5236 11.32C35.1036 11.07 35.4336 10.52 35.4336 9.88C35.4336 8.71 34.4036 7.88 33.0036 7.88C31.6936 7.88 30.6336 8.55 30.4336 10H31.5736C31.7636 9.22 32.2636 8.95 32.9736 8.95C33.8136 8.95 34.2936 9.39 34.2936 10.02C34.2936 10.63 33.8336 10.91 32.9836 10.91H32.2336V11.91H33.1836C34.1636 11.91 34.5136 12.32 34.5136 12.91C34.5136 13.6 34.0136 14.05 33.0836 14.05C32.2736 14.05 31.6536 13.73 31.4836 12.91H30.3436C30.5036 14.4 31.6836 15.12 33.0936 15.12C34.6136 15.12 35.6536 14.33 35.6536 13.01C35.6536 12.19 35.2336 11.58 34.5236 11.32Z" fill="white"/>
</g>
<rect x="24.8" y="2.8" width="16.4" height="16.4" rx="8.2" stroke="white" stroke-width="2.4"/>
<defs>
<clipPath id="clip0_3658_388">
<rect x="26" y="4" width="14" height="14" rx="7" fill="white"/>
</clipPath>
</defs>
</svg>
