<svg width="44" height="44" viewBox="0 0 44 44" fill="none" xmlns="http://www.w3.org/2000/svg">
<path fill-rule="evenodd" clip-rule="evenodd" d="M14.798 14H12V12H16.4401L17.074 15.1946C17.1671 15.6625 17.5778 16 18.0549 16H28.114C30.2086 16 31.6585 18.0921 30.923 20.0534L29.423 24.0534C28.9839 25.2243 27.8645 26 26.614 26H21.2843C18.898 26 16.8443 24.3137 16.3799 21.9731L14.798 14ZM17.6245 17.9692L18.3417 21.5839C18.6203 22.9882 19.8526 24 21.2843 24H26.614C27.0308 24 27.404 23.7414 27.5503 23.3511L29.0503 19.3511C29.2955 18.6974 28.8122 18 28.114 18H18.0549C17.9091 18 17.7653 17.9895 17.6245 17.9692Z" fill="#2D3132"/>
<path d="M20 29.5C20 30.3284 19.3284 31 18.5 31C17.6716 31 17 30.3284 17 29.5C17 28.6716 17.6716 28 18.5 28C19.3284 28 20 28.6716 20 29.5Z" fill="#2D3132"/>
<path d="M27.5 31C28.3284 31 29 30.3284 29 29.5C29 28.6716 28.3284 28 27.5 28C26.6716 28 26 28.6716 26 29.5C26 30.3284 26.6716 31 27.5 31Z" fill="#2D3132"/>
<g clip-path="url(#clip0_3658_393)">
<rect x="26" y="4" width="14" height="14" rx="7" fill="#EFF1F1"/>
<path d="M34.5236 11.32C35.1036 11.07 35.4336 10.52 35.4336 9.88C35.4336 8.71 34.4036 7.88 33.0036 7.88C31.6936 7.88 30.6336 8.55 30.4336 10H31.5736C31.7636 9.22 32.2636 8.95 32.9736 8.95C33.8136 8.95 34.2936 9.39 34.2936 10.02C34.2936 10.63 33.8336 10.91 32.9836 10.91H32.2336V11.91H33.1836C34.1636 11.91 34.5136 12.32 34.5136 12.91C34.5136 13.6 34.0136 14.05 33.0836 14.05C32.2736 14.05 31.6536 13.73 31.4836 12.91H30.3436C30.5036 14.4 31.6836 15.12 33.0936 15.12C34.6136 15.12 35.6536 14.33 35.6536 13.01C35.6536 12.19 35.2336 11.58 34.5236 11.32Z" fill="#2D3132"/>
</g>
<rect x="24.8" y="2.8" width="16.4" height="16.4" rx="8.2" stroke="white" stroke-width="2.4"/>
<defs>
<clipPath id="clip0_3658_393">
<rect x="26" y="4" width="14" height="14" rx="7" fill="white"/>
</clipPath>
</defs>
</svg>
