<svg width="20" height="17" viewBox="0 0 20 17" fill="none" xmlns="http://www.w3.org/2000/svg">
<path fill-rule="evenodd" clip-rule="evenodd" d="M9.53735 3.19603L9.46969 3.26369C7.70072 1.49472 4.83264 1.49472 3.06367 3.26369C1.2947 5.03266 1.29469 7.90074 3.06367 9.66971L6.79699 13.403C8.56597 15.172 11.434 15.172 13.203 13.403L16.9364 9.66969C18.7053 7.90071 18.7053 5.03264 16.9364 3.26367C15.1674 1.49469 12.2993 1.49469 10.5303 3.26366L10.0677 3.72634L9.53735 3.19603ZM14.2637 14.4637L17.997 10.7303C20.3518 8.37559 20.3518 4.55777 17.997 2.20301C15.8118 0.0177989 12.3667 -0.139547 10 1.73097C7.63335 -0.139521 4.18821 0.0178306 2.00301 2.20303C-0.35175 4.55779 -0.351753 8.37561 2.00301 10.7304L5.73633 14.4637L5.73635 14.4637C8.09111 16.8185 11.9089 16.8185 14.2637 14.4637L14.2637 14.4637Z" fill="#dc3545"/>
</svg>
